# xmcd
# 
# Track frame offsets:
#     182
#     16582
#     42140
#     64005
#     86337
#     114152
#     132832
#     158970
#     172252
#     192470
#     208092
#     253647
#     315762
#     333922
# 
# Disc length: 4716
# 
# Revision: 4
# Processed by: cddbd v1.5.2PL0 Copyright (c) Steve Scherf et al.
# Submitted via: fre:ac v1.0.31
# 
DISCID=b1126a0e
DTITLE=The Butterfield Blues Band - An Anthology The Elektra Years - Disc 2
DYEAR=1997
DGENRE=Blues
TTITLE0=One More Heartache
TTITLE1=Double Trouble
TTITLE2=Last Hope's Gone
TTITLE3=Mornin' Blues
TTITLE4=Just To Be With You
TTITLE5=Get Yourself Together
TTITLE6=In My Own Dream
TTITLE7=Love March
TTITLE8=Walkin' By Myself
TTITLE9=Love Disease
TTITLE10=Everything's Gonna Be Alright
TTITLE11=Driftin' and Driftin'
TTITLE12=Blind Leading The Blind
TTITLE13=Song For Lee
EXTD=
EXTT0=
EXTT1=
EXTT2=
EXTT3=
EXTT4=
EXTT5=
EXTT6=
EXTT7=
EXTT8=
EXTT9=
EXTT10=
EXTT11=
EXTT12=
EXTT13=
PLAYORDER=
